PathFileType	4	(X/Y/Z)	C:/Users/opensim2020/Desktop/walking_exp_matlab/subject03_walking10_straight_01.trc																																																																																																																																					
DataRate	CameraRate	NumFrames	NumMarkers	Units	OrigDataRate	OrigDataStartFrame	OrigNumFrames																																																																																																																																	
100	100	5	45	mm	100	718	477																																																																																																																																	
Frame#	Time	LFHD			RFHD			LBHD			RBHD			C7			T10			CLAV			STRN			RBAK			LSHO			LUPA			LELB			LFRM			LWRA			LWRB			LFIN			RSHO			RUPA			RELB			RFRM			RWRA			RWRB			RFIN			LASI			RASI			LPSI			RPSI			LTHI			LKNE			LTIB			LANK			LHEE			LTOE			RTHI			RKNE			RTIB			RANK			RHEE			RTOE			*39			*40			*41			*42			*43			*44		
		X1	Y1	Z1	X2	Y2	Z2	X3	Y3	Z3	X4	Y4	Z4	X5	Y5	Z5	X6	Y6	Z6	X7	Y7	Z7	X8	Y8	Z8	X9	Y9	Z9	X10	Y10	Z10	X11	Y11	Z11	X12	Y12	Z12	X13	Y13	Z13	X14	Y14	Z14	X15	Y15	Z15	X16	Y16	Z16	X17	Y17	Z17	X18	Y18	Z18	X19	Y19	Z19	X20	Y20	Z20	X21	Y21	Z21	X22	Y22	Z22	X23	Y23	Z23	X24	Y24	Z24	X25	Y25	Z25	X26	Y26	Z26	X27	Y27	Z27	X28	Y28	Z28	X29	Y29	Z29	X30	Y30	Z30	X31	Y31	Z31	X32	Y32	Z32	X33	Y33	Z33	X34	Y34	Z34	X35	Y35	Z35	X36	Y36	Z36	X37	Y37	Z37	X38	Y38	Z38	X39	Y39	Z39	X40	Y40	Z40	X41	Y41	Z41	X42	Y42	Z42	X43	Y43	Z43	X44	Y44	Z44	X45	Y45	Z45
																																																																																																																																								
60	0.59	-1180.33069	1635.62866	1393.68225	-1189.60144	1636.14233	1526.18982	-1302.49463	1576.98254	1388.86279	-1307.27649	1578.04333	1519.58008	-1323.24585	1424.55737	1443.54272	-1362.38416	1114.2124	1440.42334	-1198.82629	1348.06702	1444.66821	-1159.14124	1181.43201	1433.32813	-1379.85254	1248.17078	1533.83936	-1241.31726	1389.4823	1289.58081	-1238.09619	1194.75024	1217.33374	-1217.10706	1073.47424	1204.11658	-1168.41809	952.50659	1201.6991	-1124.58838	841.48401	1231.36462	-1152.80835	840.81586	1183.09326	-1119.68286	762.99512	1191.50476	-1251.44897	1366.85229	1603.72852	-1242.66675	1144.10681	1672.12769	-1218.85486	1033.61902	1683.00854	-1190.61877	899.46582	1681.91418	-1153.20105	808.21069	1643.50879	-1182.86902	799.27991	1687.73865	-1153.44897	731.19244	1676.15454	-1213.69812	941.70428	1317.15369	-1197.22632	945.62134	1553.53992	-1372.2948	968.95874	1376.15222	-1359.25635	984.25842	1524.05078	-1258.34045	640.87939	1258.35144	-1235.99951	462.44513	1270.57605	-1379.94897	326.72919	1284.5636	-1514.2627	171.81114	1334.82898	-1560.98108	167.46431	1381.40637	-1426.43579	52.15134	1331.92444	-1252.5426	655.8468	1594.80164	-1233.84985	475.70569	1557.41113	-1268.67554	289.53696	1560.40125	-1277.96863	73.33427	1509.1897	-1320.12537	40.35192	1458.64709	-1134.26282	37.47821	1493.12646	NaN	NaN	NaN	NaN	NaN	NaN	NaN	NaN	NaN	NaN	NaN	NaN	NaN	NaN	NaN	NaN	NaN	NaN
61	0.6	-1175.92383	1635.76807	1394.00635	-1184.8429	1636.41187	1526.56274	-1297.83936	1576.9021	1389.53027	-1302.40552	1578.04041	1520.27319	-1318.63904	1424.84839	1444.53625	-1358.06189	1114.48633	1441.54749	-1194.20105	1348.20923	1445.07898	-1154.9856	1181.45886	1433.75403	-1375.05762	1248.63721	1535.37952	-1237.58093	1389.54846	1290.17236	-1235.34851	1194.78589	1218.09863	-1214.98145	1073.30579	1204.94482	-1166.86658	952.02118	1202.34875	-1123.40137	840.77441	1231.78601	-1151.99744	840.24689	1183.82349	-1119.17566	762.31372	1192.02393	-1246.06763	1367.16821	1604.28809	-1235.57898	1144.61987	1673.04858	-1210.98022	1034.35254	1684.11096	-1181.9989	900.38214	1683.03735	-1144.26038	809.16583	1644.49976	-1173.54639	800.27655	1689.07117	-1143.9458	732.3927	1677.52795	-1209.44067	942.42883	1317.92029	-1192.81079	945.69727	1554.13354	-1367.87488	969.17627	1376.9397	-1354.79456	984.29944	1524.91711	-1249.74268	641.55682	1259.31531	-1224.0011	463.56244	1271.77173	-1367.08228	327.09644	1285.03711	-1500.59033	171.30011	1334.66516	-1547.74207	165.86057	1380.90527	-1410.84778	53.45011	1331.88428	-1249.0929	655.78711	1595.11719	-1231.49854	475.55878	1557.66785	-1267.29248	289.54553	1560.547	-1277.98267	73.41562	1509.22473	-1320.19617	40.3971	1458.65137	-1134.28247	37.48331	1493.09753	NaN	NaN	NaN	NaN	NaN	NaN	NaN	NaN	NaN	NaN	NaN	NaN	NaN	NaN	NaN	NaN	NaN	NaN
62	0.61	-1171.56445	1635.89795	1394.23389	-1179.90063	1636.54919	1526.85474	-1293.38501	1577.05054	1390.13928	-1297.50024	1578.09766	1520.86975	-1314.06738	1425.09106	1445.49341	-1353.64612	1114.75085	1442.74255	-1189.60754	1348.34656	1445.4967	-1149.71838	1182.18567	1434.05115	-1370.18555	1249.07593	1536.84558	-1233.83252	1389.67236	1290.71094	-1231.89587	1194.58179	1219.09106	-1212.86731	1073.23694	1205.73645	-1165.35681	951.70648	1202.99829	-1122.32983	840.22302	1232.22522	-1151.22339	839.81622	1184.42883	-1118.68567	761.74005	1192.57556	-1240.43982	1367.45679	1604.89978	-1228.61047	1145.26062	1673.88171	-1203.0957	1035.07227	1684.94348	-1173.3446	901.3299	1684.12891	-1135.43127	810.20923	1645.54626	-1164.21606	801.2608	1690.31396	-1134.75598	733.97607	1679.04907	-1204.99768	943.27454	1318.68286	-1188.46155	945.87128	1554.77051	-1363.39343	969.47253	1377.64294	-1350.29297	984.37073	1525.70313	-1241.17627	642.41486	1260.22192	-1212.61218	465.00327	1272.56946	-1353.95203	327.16324	1285.63611	-1486.21643	169.94398	1334.45593	-1534.18787	163.59033	1380.6394	-1393.88574	54.47636	1332.38513	-1245.5708	655.71948	1595.42371	-1228.97607	475.33786	1557.84875	-1265.86182	289.59631	1560.61816	-1277.86328	73.47545	1509.22876	-1320.16772	40.46958	1458.69641	-1134.25208	37.45144	1493.04614	NaN	NaN	NaN	NaN	NaN	NaN	NaN	NaN	NaN	NaN	NaN	NaN	NaN	NaN	NaN	NaN	NaN	NaN
63	0.62	-1167.02197	1636.05774	1394.47107	-1175.08093	1636.76416	1527.03308	-1288.7771	1577.04211	1390.66602	-1292.63342	1578.23047	1521.44556	-1309.55908	1425.3103	1446.39832	-1349.22815	1114.98145	1443.94385	-1184.92334	1348.55847	1445.84973	-1146.29858	1181.78223	1434.24536	-1365.33167	1249.55652	1538.22083	-1230.24011	1389.82361	1291.18347	-1229.42773	1194.72412	1219.65723	-1210.729	1073.18384	1206.48059	-1163.85632	951.44482	1203.58411	-1121.25159	839.75354	1232.66858	-1150.33118	839.4187	1185.11548	-1118.18518	761.18665	1193.19873	-1234.90039	1367.80579	1605.40149	-1221.64063	1145.88525	1674.71179	-1195.32227	1035.98853	1685.80005	-1164.75879	902.36798	1685.13452	-1126.5675	811.33264	1646.39709	-1155.02844	802.34296	1691.58484	-1125.3689	735.099	1680.07141	-1200.42993	944.14655	1319.72766	-1183.99756	945.99823	1555.36633	-1358.96887	969.78241	1378.14832	-1345.84265	984.40143	1526.4447	-1232.48157	643.20685	1261.28943	-1200.83594	466.20999	1274.28149	-1340.5304	326.75461	1286.15515	-1471.15845	167.86168	1334.34888	-1519.64209	160.29897	1379.9646	-1376.22241	54.76571	1333.1062	-1241.97986	655.5119	1595.63367	-1226.50977	475.2146	1558.01624	-1264.48096	289.59802	1560.69202	-1277.81775	73.59609	1509.22522	-1320.15637	40.55318	1458.71448	-1134.22314	37.4318	1492.99097	NaN	NaN	NaN	NaN	NaN	NaN	NaN	NaN	NaN	NaN	NaN	NaN	NaN	NaN	NaN	NaN	NaN	NaN
64	0.63	-1162.5177	1636.17993	1394.63806	-1170.17517	1636.92224	1527.12842	-1284.29749	1577.18359	1391.16187	-1287.77747	1578.38159	1521.90137	-1305.07129	1425.55981	1447.24072	-1344.85962	1115.3031	1445.14355	-1180.3634	1348.70947	1446.08081	-1141.93188	1181.97693	1434.4884	-1360.45044	1250.00989	1539.58447	-1226.7168	1389.97009	1291.5907	-1226.91663	1194.86316	1220.11523	-1208.69617	1073.14441	1207.13184	-1162.49097	951.25586	1204.13452	-1120.01672	839.46777	1233.19873	-1149.51685	839.17041	1185.59448	-1117.65247	760.685	1193.79749	-1229.68188	1368.20435	1605.82971	-1214.6554	1146.49426	1675.349	-1187.56262	1036.81409	1686.4895	-1156.27649	903.41498	1686.02991	-1117.8562	812.51807	1647.34924	-1145.98547	803.55908	1692.65344	-1115.91199	736.31537	1681.18945	-1195.94299	944.93811	1320.52246	-1179.62708	946.07343	1556.11475	-1354.45593	970.14117	1378.67102	-1341.37903	984.41956	1527.0636	-1223.90308	644.1391	1262.26807	-1189.91162	467.77628	1275.43079	-1326.8634	325.92068	1286.73254	-1455.57422	165.10437	1334.2522	-1504.49634	156.16109	1379.42188	-1357.50574	54.99714	1334.073	-1238.37134	655.34961	1595.83545	-1223.97021	475.01111	1558.16528	-1262.52637	289.3291	1560.37439	-1277.81067	73.70902	1509.25146	-1320.18933	40.69477	1458.73303	-1134.21118	37.39957	1492.95898	NaN	NaN	NaN	NaN	NaN	NaN	NaN	NaN	NaN	NaN	NaN	NaN	NaN	NaN	NaN	NaN	NaN	NaN
